<svg width="256" height="256" viewBox="0 0 256 256" fill="none" xmlns="http://www.w3.org/2000/svg">
<path d="M196 0H60C26.8629 0 0 26.8629 0 60V196C0 229.137 26.8629 256 60 256H196C229.137 256 256 229.137 256 196V60C256 26.8629 229.137 0 196 0Z" fill="#242938"/>
<path d="M105.96 27.024L148.381 27C157.992 43.923 166.095 61.758 173.005 80.057C175.769 86.855 178.562 93.654 180.804 100.666C184.16 110.937 188.391 120.87 191.6 131.2C197.904 152.942 203.474 174.913 209.073 196.861C211.161 205.602 214.052 214.1 215.934 222.893C212.966 223.9 209.983 224.872 207.021 225.909C203.693 227.013 200.16 226.902 196.712 227.211C191.776 227.712 186.819 228.035 181.876 228.477L169.973 219.913C169.43 215.961 169.515 211.922 168.802 207.986C166.779 195.367 163.605 182.977 159.995 170.756L93.81 180.343C93.316 183.117 92.802 185.898 92.3 188.679C90.087 198.538 90.644 208.751 90.051 218.794L74.933 228.529C73.96 229.308 72.691 228.881 71.583 228.867C67.846 228.477 64.088 228.492 60.365 228.021C56.571 227.528 52.509 228.234 48.962 226.439C45.994 224.997 42.933 223.761 40 222.238C43.378 205.484 47.87 188.996 52.248 172.5C57.657 151.92 64.13 131.664 70.794 111.497C80.13 82.345 91.991 54.077 105.96 27.022V27.024ZM124.343 86.421C118.836 103.094 112.461 119.428 106.566 135.954L141.767 115.72C138.34 105.75 134.885 95.795 131.26 85.906C130.57 84.236 129.878 82.08 127.974 81.609C125.711 81.889 125.048 84.545 124.343 86.421Z" fill="#BF2223"/>
</svg>
