<svg width="24" height="22" viewBox="0 0 24 22" fill="none" xmlns="http://www.w3.org/2000/svg">
<path d="M11.996 12.795C13.179 12.795 14.138 11.836 14.138 10.653C14.138 9.47001 13.179 8.511 11.996 8.511C10.813 8.511 9.854 9.47001 9.854 10.653C9.854 11.836 10.813 12.795 11.996 12.795Z" fill="white"/>
<path d="M11.996 6.81C14.764 6.81 17.393 7.2 19.392 7.888C21.612 8.652 22.967 9.782 22.967 10.653C22.967 11.58 21.504 12.784 19.129 13.571C17.239 14.197 14.709 14.539 11.996 14.539C9.146 14.539 6.587 14.204 4.719 13.565C3.549 13.165 2.583 12.645 1.92 12.079C1.325 11.569 1.025 11.063 1.025 10.653C1.025 9.779 2.327 8.665 4.5 7.907C6.5 7.21 9.193 6.81 11.996 6.81ZM11.996 5.784C9.084 5.784 6.278 6.202 4.162 6.94C1.622 7.825 0 9.213 0 10.653C0 12.139 1.741 13.631 4.387 14.535C6.376 15.215 9.041 15.564 11.996 15.564C14.812 15.564 17.447 15.208 19.452 14.544C22.202 13.632 23.992 12.159 23.992 10.653C23.992 9.208 22.317 7.811 19.726 6.918C17.613 6.191 14.872 5.784 11.996 5.784ZM8.648 8.744C10.031 6.345 11.682 4.263 13.278 2.874C15.048 1.334 16.704 0.724 17.458 1.16C18.261 1.623 18.574 3.491 18.069 5.942C17.667 7.892 16.699 10.254 15.344 12.605C13.92 15.074 12.352 17.123 10.864 18.422C9.934 19.236 9.001 19.813 8.179 20.104C7.441 20.364 6.852 20.372 6.497 20.167C5.74 19.731 5.425 18.046 5.854 15.786C6.249 13.705 7.248 11.171 8.648 8.743M7.76 8.231C6.305 10.753 5.265 13.393 4.847 15.594C4.346 18.237 4.737 20.336 5.984 21.054C7.273 21.798 9.434 21.034 11.539 19.194C13.122 17.811 14.756 15.676 16.232 13.117C17.638 10.677 18.647 8.217 19.072 6.148C19.657 3.311 19.275 1.024 17.97 0.272C16.718 -0.45 14.672 0.302001 12.604 2.102C10.92 3.568 9.197 5.74 7.76 8.231ZM8.651 12.609C7.264 10.215 6.285 7.744 5.879 5.67C5.428 3.365 5.727 1.627 6.481 1.191C7.283 0.726 9.058 1.389 10.929 3.05C12.419 4.372 13.981 6.39 15.34 8.739C16.769 11.206 17.76 13.587 18.144 15.524C18.384 16.737 18.418 17.834 18.259 18.691C18.116 19.461 17.829 19.975 17.474 20.181C16.718 20.618 15.101 20.049 13.357 18.548C11.752 17.168 10.055 15.037 8.651 12.611M7.764 13.125C9.223 15.645 10.99 17.865 12.689 19.325C14.728 21.08 16.741 21.788 17.987 21.067C19.274 20.322 19.692 18.068 19.149 15.325C18.741 13.264 17.708 10.782 16.227 8.225C14.817 5.788 13.188 3.685 11.609 2.283C9.443 0.36 7.271 -0.452 5.967 0.303C4.717 1.027 4.347 3.176 4.873 5.866C5.302 8.059 6.323 10.635 7.764 13.124" fill="white"/>
</svg>
